<svg xmlns="http://www.w3.org/2000/svg" enable-background="new 0 0 96 96" viewBox="0 0 96 96"><linearGradient id="a" x1="663.608" x2="690.724" y1="-455.529" y2="-485.408" gradientTransform="matrix(3.0757 0 0 -3.0757 -2035.172 -1399.474)" gradientUnits="userSpaceOnUse"><stop offset="0" stop-color="#ed277a"/><stop offset="1" stop-color="#f47721"/></linearGradient><path fill="url(#a)" d="M20.288,0h55.424C86.917,0,96,9.083,96,20.288v55.424C96,86.917,86.917,96,75.712,96H20.288  C9.083,96,0,86.917,0,75.712V20.288C0,9.083,9.083,0,20.288,0z"/><path fill="#f1f2f2" d="M38.997,24.905c0,0.276,0.224,0.5,0.5,0.5s0.5-0.224,0.5-0.5v-0.453c0.6-0.091,1.068-0.587,1.068-1.212   c0-0.609-0.447-1.094-1.025-1.203c-0.062-0.028-0.13-0.045-0.203-0.045h-0.02H39.39h-0.202c-0.143,0-0.258-0.112-0.258-0.251   c0-0.138,0.115-0.25,0.258-0.25h1.378c0.276,0,0.5-0.224,0.5-0.5s-0.224-0.5-0.5-0.5H40v-0.392c0-0.276-0.224-0.5-0.5-0.5   s-0.5,0.224-0.5,0.5v0.429c-0.601,0.094-1.07,0.589-1.07,1.212c0,0.689,0.564,1.251,1.258,1.251h0.202h0.428   c0.137,0,0.248,0.111,0.248,0.248s-0.111,0.248-0.248,0.248H38.43c-0.276,0-0.5,0.224-0.5,0.5s0.224,0.5,0.5,0.5h0.567V24.905z"/><path fill="#f1f2f2" d="M70.5,45H68v-2.5c0-0.276-0.224-0.5-0.5-0.5h-12c-0.276,0-0.5,0.224-0.5,0.5V45h-2V33.5   c0-0.276-0.224-0.5-0.5-0.5H50v-2.5c0-0.276-0.224-0.5-0.5-0.5h-6.479v-3.665l1.229-0.71c0.154-0.089,0.25-0.254,0.25-0.433v-5.196   c0-0.179-0.096-0.344-0.25-0.433l-4.5-2.599c-0.154-0.09-0.346-0.09-0.5,0l-4.5,2.599c-0.154,0.089-0.25,0.254-0.25,0.433v5.196   c0,0.179,0.096,0.344,0.25,0.433l1.271,0.733V30H28.5c-0.276,0-0.5,0.224-0.5,0.5V33h-2.5c-0.276,0-0.5,0.224-0.5,0.5v45   c0,0.276,0.224,0.5,0.5,0.5h9h4.233c0.082,0.06,0.178,0.102,0.288,0.102S39.226,79.06,39.308,79H43.5h9h18   c0.276,0,0.5-0.224,0.5-0.5v-33C71,45.224,70.776,45,70.5,45z M56,43h11v2H56V43z M35.5,20.886l0.755,0.436   c0.079,0.046,0.165,0.067,0.25,0.067c0.172,0,0.341-0.09,0.433-0.25c0.139-0.239,0.057-0.545-0.183-0.683l-0.776-0.448l3.521-2.034   l3.507,2.026l-0.79,0.456c-0.239,0.138-0.321,0.443-0.183,0.683c0.092,0.16,0.261,0.25,0.433,0.25c0.085,0,0.171-0.021,0.25-0.067   L43.5,20.87v4.034L40,26.925v-0.527c0-0.276-0.224-0.5-0.5-0.5s-0.5,0.224-0.5,0.5v0.527l-3.5-2.021V20.886z M37.021,26.936   l2.229,1.287c0.014,0.008,0.032,0.006,0.047,0.013c0.019,0.008,0.04,0.01,0.06,0.016c0.048,0.015,0.094,0.039,0.144,0.039   s0.096-0.024,0.144-0.039c0.02-0.006,0.041-0.008,0.06-0.016c0.015-0.007,0.032-0.004,0.047-0.013l2.271-1.311V30h-5V26.936z    M29,31h7.233c0.082,0.06,0.178,0.102,0.288,0.102h6c0.11,0,0.206-0.042,0.288-0.102H49v2H29V31z M26,34h2.5h21H52v11.5V78h-8V66.5   c0-0.276-0.224-0.5-0.5-0.5h-9c-0.276,0-0.5,0.224-0.5,0.5V78h-8V34z M35,67h3.521v11H35V67z M39.521,78V67H43v11H39.521z M70,78   H53V46h2.5h12H70V78z"/><path fill="#f1f2f2" d="M31.521 36.102c-.276 0-.5.224-.5.5v2.5h-2.5c-.276 0-.5.224-.5.5s.224.5.5.5h3c.276 0 .5-.224.5-.5v-3C32.021 36.326 31.797 36.102 31.521 36.102zM34.521 40.102h3c.276 0 .5-.224.5-.5v-3c0-.276-.224-.5-.5-.5s-.5.224-.5.5v2.5h-2.5c-.276 0-.5.224-.5.5S34.244 40.102 34.521 40.102zM40.521 40.102h3c.276 0 .5-.224.5-.5v-3c0-.276-.224-.5-.5-.5s-.5.224-.5.5v2.5h-2.5c-.276 0-.5.224-.5.5S40.244 40.102 40.521 40.102zM57.521 48.102c-.276 0-.5.224-.5.5v1.5h-1.5c-.276 0-.5.224-.5.5s.224.5.5.5h2c.276 0 .5-.224.5-.5v-2C58.021 48.326 57.797 48.102 57.521 48.102zM62.521 48.102c-.276 0-.5.224-.5.5v1.5h-1.5c-.276 0-.5.224-.5.5s.224.5.5.5h2c.276 0 .5-.224.5-.5v-2C63.021 48.326 62.797 48.102 62.521 48.102zM67.021 48.602v1.5h-1.5c-.276 0-.5.224-.5.5s.224.5.5.5h2c.276 0 .5-.224.5-.5v-2c0-.276-.224-.5-.5-.5S67.021 48.326 67.021 48.602zM57.521 53.102c-.276 0-.5.224-.5.5v1.5h-1.5c-.276 0-.5.224-.5.5s.224.5.5.5h2c.276 0 .5-.224.5-.5v-2C58.021 53.326 57.797 53.102 57.521 53.102zM62.521 53.102c-.276 0-.5.224-.5.5v1.5h-1.5c-.276 0-.5.224-.5.5s.224.5.5.5h2c.276 0 .5-.224.5-.5v-2C63.021 53.326 62.797 53.102 62.521 53.102zM67.521 53.102c-.276 0-.5.224-.5.5v1.5h-1.5c-.276 0-.5.224-.5.5s.224.5.5.5h2c.276 0 .5-.224.5-.5v-2C68.021 53.326 67.797 53.102 67.521 53.102zM57.521 58.102c-.276 0-.5.224-.5.5v1.5h-1.5c-.276 0-.5.224-.5.5s.224.5.5.5h2c.276 0 .5-.224.5-.5v-2C58.021 58.326 57.797 58.102 57.521 58.102zM62.521 58.102c-.276 0-.5.224-.5.5v1.5h-1.5c-.276 0-.5.224-.5.5s.224.5.5.5h2c.276 0 .5-.224.5-.5v-2C63.021 58.326 62.797 58.102 62.521 58.102zM67.521 58.102c-.276 0-.5.224-.5.5v1.5h-1.5c-.276 0-.5.224-.5.5s.224.5.5.5h2c.276 0 .5-.224.5-.5v-2C68.021 58.326 67.797 58.102 67.521 58.102zM57.521 63.102c-.276 0-.5.224-.5.5v1.5h-1.5c-.276 0-.5.224-.5.5s.224.5.5.5h2c.276 0 .5-.224.5-.5v-2C58.021 63.326 57.797 63.102 57.521 63.102zM62.521 63.102c-.276 0-.5.224-.5.5v1.5h-1.5c-.276 0-.5.224-.5.5s.224.5.5.5h2c.276 0 .5-.224.5-.5v-2C63.021 63.326 62.797 63.102 62.521 63.102zM67.521 63.102c-.276 0-.5.224-.5.5v1.5h-1.5c-.276 0-.5.224-.5.5s.224.5.5.5h2c.276 0 .5-.224.5-.5v-2C68.021 63.326 67.797 63.102 67.521 63.102zM57.521 68.102c-.276 0-.5.224-.5.5v1.5h-1.5c-.276 0-.5.224-.5.5s.224.5.5.5h2c.276 0 .5-.224.5-.5v-2C58.021 68.326 57.797 68.102 57.521 68.102zM62.521 68.102c-.276 0-.5.224-.5.5v1.5h-1.5c-.276 0-.5.224-.5.5s.224.5.5.5h2c.276 0 .5-.224.5-.5v-2C63.021 68.326 62.797 68.102 62.521 68.102zM67.521 68.102c-.276 0-.5.224-.5.5v1.5h-1.5c-.276 0-.5.224-.5.5s.224.5.5.5h2c.276 0 .5-.224.5-.5v-2C68.021 68.326 67.797 68.102 67.521 68.102zM57.521 73.102c-.276 0-.5.224-.5.5v1.5h-1.5c-.276 0-.5.224-.5.5s.224.5.5.5h2c.276 0 .5-.224.5-.5v-2C58.021 73.326 57.797 73.102 57.521 73.102zM62.521 73.102c-.276 0-.5.224-.5.5v1.5h-1.5c-.276 0-.5.224-.5.5s.224.5.5.5h2c.276 0 .5-.224.5-.5v-2C63.021 73.326 62.797 73.102 62.521 73.102zM67.521 73.102c-.276 0-.5.224-.5.5v1.5h-1.5c-.276 0-.5.224-.5.5s.224.5.5.5h2c.276 0 .5-.224.5-.5v-2C68.021 73.326 67.797 73.102 67.521 73.102zM46.521 40.102h3c.276 0 .5-.224.5-.5v-3c0-.276-.224-.5-.5-.5s-.5.224-.5.5v2.5h-2.5c-.276 0-.5.224-.5.5S46.244 40.102 46.521 40.102zM31.521 42.102c-.276 0-.5.224-.5.5v2.5h-2.5c-.276 0-.5.224-.5.5s.224.5.5.5h3c.276 0 .5-.224.5-.5v-3C32.021 42.326 31.797 42.102 31.521 42.102zM34.521 46.102h3c.276 0 .5-.224.5-.5v-3c0-.276-.224-.5-.5-.5s-.5.224-.5.5v2.5h-2.5c-.276 0-.5.224-.5.5S34.244 46.102 34.521 46.102zM40.521 46.102h3c.276 0 .5-.224.5-.5v-3c0-.276-.224-.5-.5-.5s-.5.224-.5.5v2.5h-2.5c-.276 0-.5.224-.5.5S40.244 46.102 40.521 46.102zM46.521 46.102h3c.276 0 .5-.224.5-.5v-3c0-.276-.224-.5-.5-.5s-.5.224-.5.5v2.5h-2.5c-.276 0-.5.224-.5.5S46.244 46.102 46.521 46.102zM31.521 48.102c-.276 0-.5.224-.5.5v2.5h-2.5c-.276 0-.5.224-.5.5s.224.5.5.5h3c.276 0 .5-.224.5-.5v-3C32.021 48.326 31.797 48.102 31.521 48.102zM34.521 52.102h3c.276 0 .5-.224.5-.5v-3c0-.276-.224-.5-.5-.5s-.5.224-.5.5v2.5h-2.5c-.276 0-.5.224-.5.5S34.244 52.102 34.521 52.102zM40.521 52.102h3c.276 0 .5-.224.5-.5v-3c0-.276-.224-.5-.5-.5s-.5.224-.5.5v2.5h-2.5c-.276 0-.5.224-.5.5S40.244 52.102 40.521 52.102zM46.521 52.102h3c.276 0 .5-.224.5-.5v-3c0-.276-.224-.5-.5-.5s-.5.224-.5.5v2.5h-2.5c-.276 0-.5.224-.5.5S46.244 52.102 46.521 52.102zM31.521 54.102c-.276 0-.5.224-.5.5v2.5h-2.5c-.276 0-.5.224-.5.5s.224.5.5.5h3c.276 0 .5-.224.5-.5v-3C32.021 54.326 31.797 54.102 31.521 54.102zM34.521 58.102h3c.276 0 .5-.224.5-.5v-3c0-.276-.224-.5-.5-.5s-.5.224-.5.5v2.5h-2.5c-.276 0-.5.224-.5.5S34.244 58.102 34.521 58.102zM40.521 58.102h3c.276 0 .5-.224.5-.5v-3c0-.276-.224-.5-.5-.5s-.5.224-.5.5v2.5h-2.5c-.276 0-.5.224-.5.5S40.244 58.102 40.521 58.102zM46.521 58.102h3c.276 0 .5-.224.5-.5v-3c0-.276-.224-.5-.5-.5s-.5.224-.5.5v2.5h-2.5c-.276 0-.5.224-.5.5S46.244 58.102 46.521 58.102zM31.521 60.102c-.276 0-.5.224-.5.5v2.5h-2.5c-.276 0-.5.224-.5.5s.224.5.5.5h3c.276 0 .5-.224.5-.5v-3C32.021 60.326 31.797 60.102 31.521 60.102zM34.521 64.102h3c.276 0 .5-.224.5-.5v-3c0-.276-.224-.5-.5-.5s-.5.224-.5.5v2.5h-2.5c-.276 0-.5.224-.5.5S34.244 64.102 34.521 64.102zM40.521 64.102h3c.276 0 .5-.224.5-.5v-3c0-.276-.224-.5-.5-.5s-.5.224-.5.5v2.5h-2.5c-.276 0-.5.224-.5.5S40.244 64.102 40.521 64.102zM46.521 64.102h3c.276 0 .5-.224.5-.5v-3c0-.276-.224-.5-.5-.5s-.5.224-.5.5v2.5h-2.5c-.276 0-.5.224-.5.5S46.244 64.102 46.521 64.102zM31.521 66.102c-.276 0-.5.224-.5.5v2.5h-2.5c-.276 0-.5.224-.5.5s.224.5.5.5h3c.276 0 .5-.224.5-.5v-3C32.021 66.326 31.797 66.102 31.521 66.102zM46.521 70.306h3c.276 0 .5-.224.5-.5v-3c0-.276-.224-.5-.5-.5s-.5.224-.5.5v2.5h-2.5c-.276 0-.5.224-.5.5S46.244 70.306 46.521 70.306zM31.521 72.102c-.276 0-.5.224-.5.5v2.5h-2.5c-.276 0-.5.224-.5.5s.224.5.5.5h3c.276 0 .5-.224.5-.5v-3C32.021 72.326 31.797 72.102 31.521 72.102zM46.521 76.306h3c.276 0 .5-.224.5-.5v-3c0-.276-.224-.5-.5-.5s-.5.224-.5.5v2.5h-2.5c-.276 0-.5.224-.5.5S46.244 76.306 46.521 76.306z"/></svg>