<?xml version="1.0" encoding="utf-8"?>
<!-- Generator: Adobe Illustrator 24.1.0, SVG Export Plug-In . SVG Version: 6.00 Build 0)  -->
<svg version="1.1" id="Layer_1" xmlns="http://www.w3.org/2000/svg" xmlns:xlink="http://www.w3.org/1999/xlink" x="0px" y="0px"
	 viewBox="0 0 24 24" style="enable-background:new 0 0 24 24;" xml:space="preserve">
<style type="text/css">
	.st0{fill:#B2B1FF;}
	.st1{fill:#6563FF;}
</style>
<path class="st0" d="M9,7c0-1.65686,1.34314-3,3-3s3,1.34314,3,3v2h2V7c0-2.76141-2.23859-5-5-5S7,4.23859,7,7v2h2V7z"/>
<path class="st0" d="M12,18c-0.55214,0.00014-0.99986-0.44734-1-0.99948c0-0.00017,0-0.00035,0-0.00052v-3c0-0.55229,0.44771-1,1-1
	s1,0.44771,1,1v3c0.00014,0.55214-0.44734,0.99986-0.99948,1C12.00035,18,12.00017,18,12,18z"/>
<path class="st1" d="M17,9H7c-1.65686,0-3,1.34314-3,3v7c0,1.65686,1.34314,3,3,3h10c1.65686,0,3-1.34314,3-3v-7
	C20,10.34314,18.65686,9,17,9z M13,17c0.00012,0.55212-0.44733,0.99988-0.99945,1C12.00037,18,12.00018,18,12,18
	c-0.55212,0.00012-0.99988-0.44733-1-0.99945c0-0.00018,0-0.00037,0-0.00055v-3c0-0.55231,0.44769-1,1-1s1,0.44769,1,1V17z"/>
</svg>
